<svg width="26" height="21" viewBox="0 0 26 21" fill="none" xmlns="http://www.w3.org/2000/svg">
    <path
        d="M8.7391 4.1511C12.5941 2.01 16.3761 -0.0346189 20.8522 0.000444575C22.4277 0.0127853 23.8523 0.510845 24.8119 1.77929C26.3542 3.81813 26.3666 4.69417 25.0137 6.43105C21.9653 10.3446 19.0922 14.3972 16.1367 18.3848C15.7203 18.9466 15.288 19.511 14.7838 19.989C13.3678 21.3317 11.7991 21.3938 10.6248 19.8323C7.04099 15.0667 3.59541 10.1952 0.104629 5.35864C0.0293792 5.25437 0.0571563 5.07433 0 4.66664C1.93889 4.48596 3.8442 4.49485 5.74472 4.66796C6.32444 4.72076 6.58412 5.34393 6.90166 5.7859C8.51023 8.02482 10.1092 10.2708 11.7029 12.5206C12.02 12.9682 12.2988 13.4436 12.9858 13.8534C15.0422 11.0307 17.0875 8.22309 19.1696 5.36495C18.2002 4.80462 17.6096 5.18596 17.0922 5.90849C16.0414 7.37595 14.9812 8.8367 13.9137 10.2919C13.6255 10.6848 13.4311 11.1825 12.663 11.4396C11.22 9.42696 9.73481 7.37734 8.27821 5.30719C7.94482 4.83338 8.17903 4.45357 8.7391 4.1511Z"
        fill="#1D1C1C" />
</svg>